<mxfile host="app.diagrams.net" agent="Mozilla/5.0 (Windows NT 10.0; Win64; x64) AppleWebKit/537.36 (KHTML, like Gecko) Chrome/133.0.0.0 Safari/537.36 Edg/133.0.0.0" version="26.0.16">
  <diagram name="第 1 页" id="im7vVYerrs3IHkvoU23m">
    <mxGraphModel dx="1426" dy="781" grid="1" gridSize="10" guides="1" tooltips="1" connect="1" arrows="1" fold="1" page="1" pageScale="1" pageWidth="827" pageHeight="1169" math="0" shadow="0">
      <root>
        <mxCell id="0" />
        <mxCell id="1" parent="0" />
        <mxCell id="YZrspgD2queqjMaaEzy6-1" value="新注册企业工单" style="whiteSpace=wrap;strokeWidth=2;labelBackgroundColor=none;fontSize=18;rounded=0;" parent="1" vertex="1">
          <mxGeometry x="430" y="20" width="170" height="50" as="geometry" />
        </mxCell>
        <mxCell id="YZrspgD2queqjMaaEzy6-2" value="数据获取" style="rhombus;strokeWidth=2;whiteSpace=wrap;labelBackgroundColor=none;fontSize=18;rounded=0;" parent="1" vertex="1">
          <mxGeometry x="460" y="120" width="120" height="120" as="geometry" />
        </mxCell>
        <mxCell id="YZrspgD2queqjMaaEzy6-3" value="工商基本信息" style="whiteSpace=wrap;strokeWidth=2;labelBackgroundColor=none;fontSize=18;rounded=0;" parent="1" vertex="1">
          <mxGeometry x="230" y="290" width="160" height="50" as="geometry" />
        </mxCell>
        <mxCell id="YZrspgD2queqjMaaEzy6-4" value="新企反馈数据" style="whiteSpace=wrap;strokeWidth=2;labelBackgroundColor=none;fontSize=18;rounded=0;" parent="1" vertex="1">
          <mxGeometry x="440" y="290" width="160" height="50" as="geometry" />
        </mxCell>
        <mxCell id="YZrspgD2queqjMaaEzy6-5" value="异常特征库" style="whiteSpace=wrap;strokeWidth=2;labelBackgroundColor=none;fontSize=18;rounded=0;" parent="1" vertex="1">
          <mxGeometry x="640" y="290" width="140" height="50" as="geometry" />
        </mxCell>
        <mxCell id="YZrspgD2queqjMaaEzy6-6" value="空壳识别模型" style="whiteSpace=wrap;strokeWidth=2;labelBackgroundColor=none;fontSize=18;rounded=0;" parent="1" vertex="1">
          <mxGeometry x="540" y="400" width="160" height="50" as="geometry" />
        </mxCell>
        <mxCell id="YZrspgD2queqjMaaEzy6-7" value="模型特征加工" style="whiteSpace=wrap;strokeWidth=2;labelBackgroundColor=none;fontSize=18;rounded=0;" parent="1" vertex="1">
          <mxGeometry x="410" y="500" width="160" height="50" as="geometry" />
        </mxCell>
        <mxCell id="YZrspgD2queqjMaaEzy6-8" value="数值标准化（Z-Score）" style="whiteSpace=wrap;strokeWidth=2;labelBackgroundColor=none;fontSize=18;rounded=0;" parent="1" vertex="1">
          <mxGeometry x="240" y="650" width="230" height="50" as="geometry" />
        </mxCell>
        <mxCell id="YZrspgD2queqjMaaEzy6-9" value="分类变量编码（One-Hot）" style="whiteSpace=wrap;strokeWidth=2;labelBackgroundColor=none;fontSize=18;rounded=0;" parent="1" vertex="1">
          <mxGeometry x="510" y="650" width="250" height="50" as="geometry" />
        </mxCell>
        <mxCell id="YZrspgD2queqjMaaEzy6-10" value="模型实时评分" style="whiteSpace=wrap;strokeWidth=2;labelBackgroundColor=none;fontSize=18;rounded=0;" parent="1" vertex="1">
          <mxGeometry x="810" y="500" width="160" height="50" as="geometry" />
        </mxCell>
        <mxCell id="YZrspgD2queqjMaaEzy6-11" value="风险分级决策" style="rhombus;strokeWidth=2;whiteSpace=wrap;labelBackgroundColor=none;fontSize=18;rounded=0;" parent="1" vertex="1">
          <mxGeometry x="810" y="600" width="150" height="150" as="geometry" />
        </mxCell>
        <mxCell id="YZrspgD2queqjMaaEzy6-12" value="1级风险（红色）&#xa;自动过滤" style="whiteSpace=wrap;strokeWidth=2;labelBackgroundColor=none;fontSize=18;rounded=0;" parent="1" vertex="1">
          <mxGeometry x="580" y="830" width="180" height="80" as="geometry" />
        </mxCell>
        <mxCell id="YZrspgD2queqjMaaEzy6-13" value="2级风险（橙色）&#xa;人工复核队列" style="whiteSpace=wrap;strokeWidth=2;labelBackgroundColor=none;fontSize=18;rounded=0;" parent="1" vertex="1">
          <mxGeometry x="220" y="830" width="180" height="80" as="geometry" />
        </mxCell>
        <mxCell id="YZrspgD2queqjMaaEzy6-14" value="3级风险（黄色）&#xa;标注提示信息" style="whiteSpace=wrap;strokeWidth=2;labelBackgroundColor=none;fontSize=18;rounded=0;" parent="1" vertex="1">
          <mxGeometry x="810" y="830" width="180" height="80" as="geometry" />
        </mxCell>
        <mxCell id="YZrspgD2queqjMaaEzy6-15" value="正常企业&#xa;直接派发工单" style="whiteSpace=wrap;strokeWidth=2;labelBackgroundColor=none;fontSize=18;rounded=0;" parent="1" vertex="1">
          <mxGeometry x="1040" y="830" width="160" height="80" as="geometry" />
        </mxCell>
        <mxCell id="YZrspgD2queqjMaaEzy6-16" value="空壳企业清单" style="whiteSpace=wrap;strokeWidth=2;labelBackgroundColor=none;fontSize=18;rounded=0;" parent="1" vertex="1">
          <mxGeometry x="590" y="980" width="160" height="50" as="geometry" />
        </mxCell>
        <mxCell id="YZrspgD2queqjMaaEzy6-17" value="复核工作台&#xa;（关联《异常特征检查表》）" style="whiteSpace=wrap;strokeWidth=2;labelBackgroundColor=none;fontSize=18;rounded=0;" parent="1" vertex="1">
          <mxGeometry x="180" y="960" width="260" height="100" as="geometry" />
        </mxCell>
        <mxCell id="YZrspgD2queqjMaaEzy6-18" value="确认空壳 → 加入黑名单" style="whiteSpace=wrap;strokeWidth=2;labelBackgroundColor=none;fontSize=18;rounded=0;" parent="1" vertex="1">
          <mxGeometry x="20" y="1110" width="230" height="50" as="geometry" />
        </mxCell>
        <mxCell id="YZrspgD2queqjMaaEzy6-19" value="误判企业 → 模型再训练" style="whiteSpace=wrap;strokeWidth=2;labelBackgroundColor=none;fontSize=18;rounded=0;" parent="1" vertex="1">
          <mxGeometry x="300" y="1110" width="230" height="50" as="geometry" />
        </mxCell>
        <mxCell id="YZrspgD2queqjMaaEzy6-20" value="带预警工单" style="whiteSpace=wrap;strokeWidth=2;labelBackgroundColor=none;fontSize=18;rounded=0;" parent="1" vertex="1">
          <mxGeometry x="830" y="980" width="140" height="50" as="geometry" />
        </mxCell>
        <mxCell id="YZrspgD2queqjMaaEzy6-21" value="有效客户池" style="whiteSpace=wrap;strokeWidth=2;labelBackgroundColor=none;fontSize=18;rounded=0;" parent="1" vertex="1">
          <mxGeometry x="1040" y="980" width="140" height="50" as="geometry" />
        </mxCell>
        <mxCell id="YZrspgD2queqjMaaEzy6-22" value="工单管理系统" style="whiteSpace=wrap;strokeWidth=2;labelBackgroundColor=none;fontSize=18;rounded=0;" parent="1" vertex="1">
          <mxGeometry x="830" y="1110" width="160" height="50" as="geometry" />
        </mxCell>
        <mxCell id="YZrspgD2queqjMaaEzy6-23" value="客户经理APP" style="whiteSpace=wrap;strokeWidth=2;labelBackgroundColor=none;fontSize=18;rounded=0;" parent="1" vertex="1">
          <mxGeometry x="830" y="1210" width="150" height="50" as="geometry" />
        </mxCell>
        <mxCell id="YZrspgD2queqjMaaEzy6-24" value="" style="curved=1;startArrow=none;endArrow=block;exitX=0.5;exitY=1;entryX=0.5;entryY=0;rounded=0;labelBackgroundColor=none;fontColor=default;fontSize=18;" parent="1" source="YZrspgD2queqjMaaEzy6-1" target="YZrspgD2queqjMaaEzy6-2" edge="1">
          <mxGeometry relative="1" as="geometry">
            <Array as="points" />
          </mxGeometry>
        </mxCell>
        <mxCell id="YZrspgD2queqjMaaEzy6-25" value="" style="curved=1;startArrow=none;endArrow=block;exitX=0;exitY=0.7;entryX=0.5;entryY=0;rounded=0;labelBackgroundColor=none;fontColor=default;fontSize=18;" parent="1" source="YZrspgD2queqjMaaEzy6-2" target="YZrspgD2queqjMaaEzy6-3" edge="1">
          <mxGeometry relative="1" as="geometry">
            <Array as="points">
              <mxPoint x="310" y="270" />
            </Array>
          </mxGeometry>
        </mxCell>
        <mxCell id="YZrspgD2queqjMaaEzy6-26" value="" style="curved=1;startArrow=none;endArrow=block;exitX=0.5;exitY=1;entryX=0.5;entryY=0;rounded=0;labelBackgroundColor=none;fontColor=default;fontSize=18;" parent="1" source="YZrspgD2queqjMaaEzy6-2" target="YZrspgD2queqjMaaEzy6-4" edge="1">
          <mxGeometry relative="1" as="geometry">
            <Array as="points" />
          </mxGeometry>
        </mxCell>
        <mxCell id="YZrspgD2queqjMaaEzy6-27" value="" style="curved=1;startArrow=none;endArrow=block;exitX=1;exitY=0.71;entryX=0.5;entryY=0;rounded=0;labelBackgroundColor=none;fontColor=default;fontSize=18;" parent="1" source="YZrspgD2queqjMaaEzy6-2" target="YZrspgD2queqjMaaEzy6-5" edge="1">
          <mxGeometry relative="1" as="geometry">
            <Array as="points">
              <mxPoint x="710" y="270" />
            </Array>
          </mxGeometry>
        </mxCell>
        <mxCell id="YZrspgD2queqjMaaEzy6-28" value="" style="curved=1;startArrow=none;endArrow=block;exitX=0.5;exitY=1;entryX=0;entryY=0.25;rounded=0;labelBackgroundColor=none;fontColor=default;fontSize=18;" parent="1" source="YZrspgD2queqjMaaEzy6-3" target="YZrspgD2queqjMaaEzy6-6" edge="1">
          <mxGeometry relative="1" as="geometry">
            <Array as="points">
              <mxPoint x="310" y="370" />
            </Array>
          </mxGeometry>
        </mxCell>
        <mxCell id="YZrspgD2queqjMaaEzy6-29" value="" style="curved=1;startArrow=none;endArrow=block;exitX=0.5;exitY=1;entryX=0.17;entryY=0;rounded=0;labelBackgroundColor=none;fontColor=default;fontSize=18;" parent="1" source="YZrspgD2queqjMaaEzy6-4" target="YZrspgD2queqjMaaEzy6-6" edge="1">
          <mxGeometry relative="1" as="geometry">
            <Array as="points">
              <mxPoint x="520" y="370" />
            </Array>
          </mxGeometry>
        </mxCell>
        <mxCell id="YZrspgD2queqjMaaEzy6-30" value="" style="curved=1;startArrow=none;endArrow=block;exitX=0.5;exitY=1;entryX=0.83;entryY=0;rounded=0;labelBackgroundColor=none;fontColor=default;fontSize=18;" parent="1" source="YZrspgD2queqjMaaEzy6-5" target="YZrspgD2queqjMaaEzy6-6" edge="1">
          <mxGeometry relative="1" as="geometry">
            <Array as="points">
              <mxPoint x="710" y="370" />
            </Array>
          </mxGeometry>
        </mxCell>
        <mxCell id="YZrspgD2queqjMaaEzy6-31" value="" style="curved=1;startArrow=none;endArrow=block;exitX=0.09;exitY=1;entryX=0.5;entryY=0;rounded=0;labelBackgroundColor=none;fontColor=default;fontSize=18;" parent="1" source="YZrspgD2queqjMaaEzy6-6" target="YZrspgD2queqjMaaEzy6-7" edge="1">
          <mxGeometry relative="1" as="geometry">
            <Array as="points">
              <mxPoint x="490" y="480" />
            </Array>
          </mxGeometry>
        </mxCell>
        <mxCell id="YZrspgD2queqjMaaEzy6-32" value="" style="curved=1;startArrow=none;endArrow=block;exitX=0.02;exitY=1;entryX=0.5;entryY=0;rounded=0;labelBackgroundColor=none;fontColor=default;fontSize=18;" parent="1" source="YZrspgD2queqjMaaEzy6-7" target="YZrspgD2queqjMaaEzy6-8" edge="1">
          <mxGeometry relative="1" as="geometry">
            <Array as="points">
              <mxPoint x="350" y="580" />
            </Array>
          </mxGeometry>
        </mxCell>
        <mxCell id="YZrspgD2queqjMaaEzy6-33" value="" style="curved=1;startArrow=none;endArrow=block;exitX=0.98;exitY=1;entryX=0.5;entryY=0;rounded=0;labelBackgroundColor=none;fontColor=default;fontSize=18;" parent="1" source="YZrspgD2queqjMaaEzy6-7" target="YZrspgD2queqjMaaEzy6-9" edge="1">
          <mxGeometry relative="1" as="geometry">
            <Array as="points">
              <mxPoint x="630" y="580" />
            </Array>
          </mxGeometry>
        </mxCell>
        <mxCell id="YZrspgD2queqjMaaEzy6-34" value="" style="curved=1;startArrow=none;endArrow=block;exitX=1;exitY=0.78;entryX=0.5;entryY=0;rounded=0;labelBackgroundColor=none;fontColor=default;fontSize=18;" parent="1" source="YZrspgD2queqjMaaEzy6-6" target="YZrspgD2queqjMaaEzy6-10" edge="1">
          <mxGeometry relative="1" as="geometry">
            <Array as="points">
              <mxPoint x="880" y="480" />
            </Array>
          </mxGeometry>
        </mxCell>
        <mxCell id="YZrspgD2queqjMaaEzy6-35" value="" style="curved=1;startArrow=none;endArrow=block;exitX=0.5;exitY=1;entryX=0.5;entryY=0;rounded=0;labelBackgroundColor=none;fontColor=default;fontSize=18;" parent="1" source="YZrspgD2queqjMaaEzy6-10" target="YZrspgD2queqjMaaEzy6-11" edge="1">
          <mxGeometry relative="1" as="geometry">
            <Array as="points" />
          </mxGeometry>
        </mxCell>
        <mxCell id="YZrspgD2queqjMaaEzy6-36" value="概率≥80%" style="curved=1;startArrow=none;endArrow=block;exitX=0;exitY=0.76;entryX=0.5;entryY=0;rounded=0;labelBackgroundColor=none;fontColor=default;fontSize=18;" parent="1" source="YZrspgD2queqjMaaEzy6-11" target="YZrspgD2queqjMaaEzy6-12" edge="1">
          <mxGeometry relative="1" as="geometry">
            <Array as="points">
              <mxPoint x="670" y="790" />
            </Array>
          </mxGeometry>
        </mxCell>
        <mxCell id="YZrspgD2queqjMaaEzy6-37" value="60%-80%" style="curved=1;startArrow=none;endArrow=block;exitX=0;exitY=0.6;entryX=0.5;entryY=0;rounded=0;labelBackgroundColor=none;fontColor=default;fontSize=18;" parent="1" source="YZrspgD2queqjMaaEzy6-11" target="YZrspgD2queqjMaaEzy6-13" edge="1">
          <mxGeometry relative="1" as="geometry">
            <Array as="points">
              <mxPoint x="310" y="790" />
            </Array>
          </mxGeometry>
        </mxCell>
        <mxCell id="YZrspgD2queqjMaaEzy6-38" value="40%-60%" style="curved=1;startArrow=none;endArrow=block;exitX=0.56;exitY=1;entryX=0.5;entryY=0;rounded=0;labelBackgroundColor=none;fontColor=default;fontSize=18;" parent="1" source="YZrspgD2queqjMaaEzy6-11" target="YZrspgD2queqjMaaEzy6-14" edge="1">
          <mxGeometry relative="1" as="geometry">
            <Array as="points">
              <mxPoint x="900" y="790" />
            </Array>
          </mxGeometry>
        </mxCell>
        <mxCell id="YZrspgD2queqjMaaEzy6-39" value="概率&lt;40%" style="curved=1;startArrow=none;endArrow=block;exitX=1;exitY=0.74;entryX=0.5;entryY=0;rounded=0;labelBackgroundColor=none;fontColor=default;fontSize=18;" parent="1" source="YZrspgD2queqjMaaEzy6-11" target="YZrspgD2queqjMaaEzy6-15" edge="1">
          <mxGeometry relative="1" as="geometry">
            <Array as="points">
              <mxPoint x="1110" y="790" />
            </Array>
          </mxGeometry>
        </mxCell>
        <mxCell id="YZrspgD2queqjMaaEzy6-40" value="" style="curved=1;startArrow=none;endArrow=block;exitX=0.5;exitY=1;entryX=0.5;entryY=0;rounded=0;labelBackgroundColor=none;fontColor=default;fontSize=18;" parent="1" source="YZrspgD2queqjMaaEzy6-12" target="YZrspgD2queqjMaaEzy6-16" edge="1">
          <mxGeometry relative="1" as="geometry">
            <Array as="points" />
          </mxGeometry>
        </mxCell>
        <mxCell id="YZrspgD2queqjMaaEzy6-41" value="" style="curved=1;startArrow=none;endArrow=block;exitX=0.5;exitY=1;entryX=0.5;entryY=0;rounded=0;labelBackgroundColor=none;fontColor=default;fontSize=18;" parent="1" source="YZrspgD2queqjMaaEzy6-13" target="YZrspgD2queqjMaaEzy6-17" edge="1">
          <mxGeometry relative="1" as="geometry">
            <Array as="points" />
          </mxGeometry>
        </mxCell>
        <mxCell id="YZrspgD2queqjMaaEzy6-42" value="" style="curved=1;startArrow=none;endArrow=block;exitX=0.05;exitY=1;entryX=0.5;entryY=0;rounded=0;labelBackgroundColor=none;fontColor=default;fontSize=18;" parent="1" source="YZrspgD2queqjMaaEzy6-17" target="YZrspgD2queqjMaaEzy6-18" edge="1">
          <mxGeometry relative="1" as="geometry">
            <Array as="points">
              <mxPoint x="140" y="1080" />
            </Array>
          </mxGeometry>
        </mxCell>
        <mxCell id="YZrspgD2queqjMaaEzy6-43" value="" style="curved=1;startArrow=none;endArrow=block;exitX=0.77;exitY=1;entryX=0.5;entryY=0;rounded=0;labelBackgroundColor=none;fontColor=default;fontSize=18;" parent="1" source="YZrspgD2queqjMaaEzy6-17" target="YZrspgD2queqjMaaEzy6-19" edge="1">
          <mxGeometry relative="1" as="geometry">
            <Array as="points">
              <mxPoint x="410" y="1080" />
            </Array>
          </mxGeometry>
        </mxCell>
        <mxCell id="YZrspgD2queqjMaaEzy6-44" value="" style="curved=1;startArrow=none;endArrow=block;exitX=0.5;exitY=1;entryX=0.5;entryY=0;rounded=0;labelBackgroundColor=none;fontColor=default;fontSize=18;" parent="1" source="YZrspgD2queqjMaaEzy6-14" target="YZrspgD2queqjMaaEzy6-20" edge="1">
          <mxGeometry relative="1" as="geometry">
            <Array as="points" />
          </mxGeometry>
        </mxCell>
        <mxCell id="YZrspgD2queqjMaaEzy6-45" value="" style="curved=1;startArrow=none;endArrow=block;exitX=0.5;exitY=1;entryX=0.5;entryY=0;rounded=0;labelBackgroundColor=none;fontColor=default;fontSize=18;" parent="1" source="YZrspgD2queqjMaaEzy6-15" target="YZrspgD2queqjMaaEzy6-21" edge="1">
          <mxGeometry relative="1" as="geometry">
            <Array as="points" />
          </mxGeometry>
        </mxCell>
        <mxCell id="YZrspgD2queqjMaaEzy6-46" value="" style="curved=1;startArrow=none;endArrow=block;exitX=0.5;exitY=1;entryX=0;entryY=0.19;rounded=0;labelBackgroundColor=none;fontColor=default;fontSize=18;" parent="1" source="YZrspgD2queqjMaaEzy6-16" target="YZrspgD2queqjMaaEzy6-22" edge="1">
          <mxGeometry relative="1" as="geometry">
            <Array as="points">
              <mxPoint x="670" y="1080" />
            </Array>
          </mxGeometry>
        </mxCell>
        <mxCell id="YZrspgD2queqjMaaEzy6-47" value="" style="curved=1;startArrow=none;endArrow=block;exitX=0.5;exitY=1;entryX=0.47;entryY=0;rounded=0;labelBackgroundColor=none;fontColor=default;fontSize=18;" parent="1" source="YZrspgD2queqjMaaEzy6-20" target="YZrspgD2queqjMaaEzy6-22" edge="1">
          <mxGeometry relative="1" as="geometry">
            <Array as="points">
              <mxPoint x="900" y="1080" />
            </Array>
          </mxGeometry>
        </mxCell>
        <mxCell id="YZrspgD2queqjMaaEzy6-48" value="" style="curved=1;startArrow=none;endArrow=block;exitX=0.5;exitY=1;entryX=1;entryY=0.14;rounded=0;labelBackgroundColor=none;fontColor=default;fontSize=18;" parent="1" source="YZrspgD2queqjMaaEzy6-21" target="YZrspgD2queqjMaaEzy6-22" edge="1">
          <mxGeometry relative="1" as="geometry">
            <Array as="points">
              <mxPoint x="1110" y="1080" />
            </Array>
          </mxGeometry>
        </mxCell>
        <mxCell id="YZrspgD2queqjMaaEzy6-49" value="" style="curved=1;startArrow=none;endArrow=block;exitX=0.5;exitY=1;entryX=0.5;entryY=0;rounded=0;labelBackgroundColor=none;fontColor=default;fontSize=18;" parent="1" source="YZrspgD2queqjMaaEzy6-22" target="YZrspgD2queqjMaaEzy6-23" edge="1">
          <mxGeometry relative="1" as="geometry">
            <Array as="points" />
          </mxGeometry>
        </mxCell>
      </root>
    </mxGraphModel>
  </diagram>
</mxfile>
